<?xml version="1.0" encoding="utf-8"?><svg xmlns="http://www.w3.org/2000/svg" xmlns:xlink="http://www.w3.org/1999/xlink"><symbol viewBox="0 0 24 24" id="check" xmlns="http://www.w3.org/2000/svg"><path d="M9 16.17L4.83 12l-1.42 1.41L9 19 21 7l-1.41-1.41z" fill="currentColor"/></symbol><symbol viewBox="0 0 24 24" id="emoji" xmlns="http://www.w3.org/2000/svg"><path d="M14.5 11c-.83 0-1.5-.67-1.5-1.5S13.67 8 14.5 8s1.5.67 1.5 1.5-.67 1.5-1.5 1.5zm-5 0C8.67 11 8 10.33 8 9.5S8.67 8 9.5 8s1.5.67 1.5 1.5-.67 1.5-1.5 1.5zm2.5 6.5c-2.33 0-4.31-1.46-5.11-3.5h10.22c-.8 2.04-2.78 3.5-5.11 3.5zM19 7v2.99s-1.99.01-2 0V7h-3s.01-1.99 0-2h3V2h2v3h3v2h-3zm-3.662-4.412l-.676 1.882A7.717 7.717 0 0 0 12 4a8 8 0 1 0 7.545 5.335l1.884-.67A9.99 9.99 0 0 1 22 12c0 5.523-4.477 10-10 10S2 17.523 2 12 6.477 2 12 2c1.157 0 2.251.197 3.338.588z" fill="currentColor"/></symbol><symbol viewBox="0 0 24 24" id="expand" xmlns="http://www.w3.org/2000/svg"><path d="M16.59 8.59L12 13.17 7.41 8.59 6 10l6 6 6-6z" fill="currentColor"/></symbol><symbol viewBox="0 0 24 24" id="search" xmlns="http://www.w3.org/2000/svg"><path d="M15.5 14h-.79l-.28-.27A6.471 6.471 0 0 0 16 9.5 6.5 6.5 0 1 0 9.5 16c1.61 0 3.09-.59 4.23-1.57l.27.28v.79l5 4.99L20.49 19l-4.99-5zm-6 0C7.01 14 5 11.99 5 9.5S7.01 5 9.5 5 14 7.01 14 9.5 11.99 14 9.5 14z" fill="currentColor"/></symbol></svg>
